<svg xmlns="http://www.w3.org/2000/svg" viewBox="0 0 139.5 71.2" preserveAspectRatio="xMidYMid meet" aria-hidden="true"
    focusable="false">
    <style>
        .st0 {
            fill: #fff
        }
    </style>
    <g>
        <path
            d="M24.7 3.7L23.4.4C23.3 0 23 0 23 0H12.9c-.3 0-.4.3-.4.3l-1.3 3.4H0v25h35.8v-25H24.7zm2.7 21.8H3.2V7.1l24.2.1v18.3zm4.2-10.3c-.9 0-1.6-.7-1.6-1.6 0-.9.7-1.6 1.6-1.6.9 0 1.6.7 1.6 1.6.1.8-.7 1.6-1.6 1.6zm0-5c-.9 0-1.6-.7-1.6-1.6 0-.9.7-1.6 1.6-1.6.9 0 1.6.7 1.6 1.6.1.9-.7 1.6-1.6 1.6z"
            class="st0"></path>
        <path d="M9.8 23.6v-5.1s.4-1 5.6-1.3c0 0 4.2-.1 5.7 1.3v5.2l-11.3-.1z" class="st0"></path>
        <circle cx="15.4" cy="12.8" r="3.3" class="st0"></circle>
    </g>
    <path
        d="M127.6 53.4V5.9c0-3.3-2.7-5.9-5.9-5.9H62.4c-3.3 0-5.9 2.7-5.9 5.9v47.5H44.6v17.8h95V53.4h-12zm-23.7 11.9H80.2v-5.9h23.7v5.9zm17.8-11.9H62.4V5.9h59.3v47.5zM32.6 34.6C31 37.5 30.7 42 37 41.8v-3.6l5.4 5.4L37 49v-3.5c-7.5.2-8.4-6.6-4.4-10.9z"
        class="st0"></path>
    <path
        d="M63.1 6.7H121v6.2H63.1zM69.1 23.2h34.1v1.2H69.1zM69.1 26.2h23.2v1.2H69.1zM69.1 29.2h34.1v1.2H69.1zM69.1 32.2h23.2v1.2H69.1zM69.1 35.2h34.1v1.2H69.1zM69.1 38.2h23.2v1.2H69.1zM69.1 45.2h14.1v3.5H69.1zM69.1 17.2h27.6v3.1H69.1z"
        class="st0"></path>
</svg>