<?xml version="1.0" encoding="utf-8"?>
<!-- Generator: Adobe Illustrator 24.0.2, SVG Export Plug-In . SVG Version: 6.00 Build 0)  -->
<svg version="1.1" id="Layer_1" xmlns="http://www.w3.org/2000/svg" xmlns:xlink="http://www.w3.org/1999/xlink" x="0px" y="0px"
	 viewBox="0 0 295.9 434.8" style="enable-background:new 0 0 295.9 434.8;" xml:space="preserve">
<style type="text/css">
	.st0{fill:#A7A9AC;}
	.st1{fill:#FFFFFF;}
	.st2{fill:#EFC319;}
	.st3{fill:#1D1D1B;}
	.st4{fill:#2160AD;}
	.st5{fill:#005EB8;}
	.st6{font-family:'FrutigerLTStd-Bold';}
	.st7{font-size:12px;}
	.st8{letter-spacing:-1;}
	.st9{font-family:'Courier';}
	.st10{font-size:18px;}
</style>
<g>
	<path class="st0" d="M295.9,434.8H0V0h295.9V434.8z"/>
</g>
<rect x="5" y="5" class="st1" width="285.9" height="424.8"/>
<path class="st2" d="M282,225H12.2v-67.7H282V225z M17.2,217.9H277v-55.6H17.2V217.9z"/>
<rect x="17.2" y="285.5" class="st0" width="259.8" height="2.4"/>
<rect x="17.2" y="291.5" class="st0" width="259.8" height="2.4"/>
<rect x="17.2" y="298.1" class="st0" width="259.8" height="2.4"/>
<rect x="17.2" y="304.4" class="st0" width="259.8" height="2.4"/>
<rect x="17.2" y="310.5" class="st0" width="259.8" height="2.3"/>
<rect x="17.2" y="346.6" class="st0" width="259.8" height="2.3"/>
<path class="st3" d="M172.5,35.5h2c0.7,0,1.8,0.2,1.8,1.5c0,0.7-0.5,1.2-1.1,1.3c0.7,0,1.3,0.6,1.3,1.3c0,1.4-1.3,1.6-2,1.6h-2V35.5
	z M173.6,37.8h0.5c0.5,0,1.1-0.1,1.1-0.7c0-0.7-0.6-0.7-1.1-0.7h-0.4V37.8z M173.6,40.3h0.5c0.5,0,1.2-0.1,1.2-0.8
	c0-0.7-0.6-0.9-1.2-0.9h-0.5V40.3z"/>
<path class="st3" d="M181.2,41.2h-1v-0.6c-0.3,0.4-0.8,0.7-1.4,0.7c-1,0-1.4-0.7-1.4-1.6V37h1.1v2.2c0,0.5,0,1.2,0.7,1.2
	c0.8,0,1-0.9,1-1.4v-2h1.1L181.2,41.2z"/>
<path class="st3" d="M184.8,37.9c-0.3-0.1-0.6-0.2-1-0.2c-0.3,0-0.6,0.1-0.6,0.5c0,0.7,1.9,0.2,1.9,1.8c0,1-0.9,1.4-1.8,1.4
	c-0.4,0-0.8-0.1-1.2-0.2l0.1-0.9c0.3,0.2,0.7,0.3,1.1,0.3c0.3,0,0.7-0.1,0.7-0.5c0-0.8-1.9-0.3-1.9-1.8c0-0.9,0.8-1.3,1.6-1.3
	c0.4,0,0.8,0.1,1.2,0.2L184.8,37.9z"/>
<path class="st3" d="M186,35.2h1.1v1H186V35.2z M186,37h1.1v4.2H186V37z"/>
<path class="st3" d="M188.2,37h1v0.6c0.3-0.4,0.8-0.7,1.4-0.7c1,0,1.4,0.7,1.4,1.6v2.7H191V39c0-0.5,0-1.2-0.7-1.2
	c-0.8,0-1,0.9-1,1.4v2.1h-1.1V37z"/>
<path class="st3" d="M196.6,41c-0.4,0.2-0.9,0.4-1.4,0.3c-1.4,0-2.2-0.8-2.2-2.2c0-1.2,0.6-2.2,2-2.2c1.6,0,2,1.1,2,2.5H194
	c0,0.6,0.5,1.1,1.1,1.1l0.1,0c0.5,0,1-0.2,1.4-0.4L196.6,41z M195.9,38.7c0-0.5-0.3-1-0.9-1c-0.5,0-1,0.4-1,0.9l0,0.1H195.9z"/>
<path class="st3" d="M200.3,37.9c-0.3-0.1-0.6-0.2-1-0.2c-0.3,0-0.6,0.1-0.6,0.5c0,0.7,1.9,0.2,1.9,1.8c0,1-0.9,1.4-1.8,1.4
	c-0.4,0-0.8-0.1-1.2-0.2l0.1-0.9c0.3,0.2,0.7,0.3,1.1,0.3c0.3,0,0.7-0.1,0.7-0.5c0-0.8-1.9-0.3-1.9-1.8c0-0.9,0.8-1.3,1.6-1.3
	c0.4,0,0.8,0.1,1.2,0.2L200.3,37.9z"/>
<path class="st3" d="M203.9,37.9c-0.3-0.1-0.7-0.2-1-0.2c-0.3,0-0.6,0.1-0.6,0.5c0,0.7,1.9,0.2,1.9,1.8c0,1-0.9,1.4-1.8,1.4
	c-0.4,0-0.8-0.1-1.2-0.2l0.1-0.9c0.3,0.2,0.7,0.3,1.1,0.3c0.3,0,0.7-0.1,0.7-0.5c0-0.8-1.9-0.3-1.9-1.8c0-0.9,0.8-1.3,1.6-1.3
	c0.4,0,0.8,0.1,1.2,0.2L203.9,37.9z"/>
<path class="st3" d="M210.4,36.6c-0.4-0.2-0.8-0.2-1.1-0.2c-0.4-0.1-0.8,0.3-0.9,0.7l0,0.1c0,1,2.5,0.6,2.5,2.5c0,1.2-1,1.7-2.1,1.7
	c-0.5,0-1-0.1-1.5-0.2l0.1-1c0.4,0.2,0.8,0.3,1.3,0.4c0.4,0,1-0.2,1-0.7c0-1.1-2.5-0.6-2.5-2.5c0-1.3,1-1.7,2-1.7
	c0.5,0,0.9,0.1,1.4,0.2L210.4,36.6z"/>
<path class="st3" d="M215.2,41c-0.4,0.2-0.9,0.4-1.4,0.3c-1.4,0-2.2-0.8-2.2-2.2c0-1.2,0.6-2.2,1.9-2.2c1.6,0,2,1.1,2,2.5h-2.9
	c0,0.6,0.5,1.1,1.1,1.1l0.1,0c0.5,0,1-0.2,1.4-0.4V41z M214.5,38.7c0-0.5-0.3-1-0.9-1c-0.5,0-1,0.4-1,0.9l0,0.1H214.5z"/>
<path class="st3" d="M216.4,37h1v1c0.1-0.6,0.6-1,1.2-1.1c0.1,0,0.2,0,0.3,0v1.1c-0.2-0.1-0.3-0.1-0.5-0.1c-0.9,0-0.9,1.1-0.9,1.7
	v1.5h-1.1L216.4,37z"/>
<polygon class="st3" points="219.1,37 220.3,37 221.3,40.1 222.3,37 223.4,37 221.9,41.2 220.6,41.2 "/>
<path class="st3" d="M224.1,35.2h1.1v1h-1.1V35.2z M224.1,37h1.1v4.2h-1.1V37z"/>
<path class="st3" d="M229.1,37.9c-0.2-0.1-0.5-0.2-0.7-0.2c-0.7,0-1.1,0.5-1.1,1.3c0,0.8,0.4,1.4,1.1,1.4c0.3,0,0.6-0.1,0.8-0.2
	l0,0.9c-0.4,0.1-0.7,0.2-1.1,0.1c-1.4,0-2.1-0.9-2.1-2.2c0-1.2,0.7-2.2,2-2.2c0.4,0,0.7,0,1.1,0.1L229.1,37.9z"/>
<path class="st3" d="M233.4,41c-0.4,0.2-0.9,0.4-1.4,0.3c-1.4,0-2.2-0.8-2.2-2.2c0-1.2,0.6-2.2,1.9-2.2c1.6,0,2,1.1,2,2.5h-2.9
	c0,0.6,0.5,1.1,1.1,1.1l0.1,0c0.5,0,1-0.2,1.4-0.4V41z M232.6,38.7c0-0.5-0.3-1-0.9-1c-0.5,0-1,0.4-1,0.9l0,0.1H232.6z"/>
<path class="st3" d="M237,37.9c-0.3-0.1-0.6-0.2-1-0.2c-0.3,0-0.6,0.1-0.6,0.5c0,0.7,1.9,0.2,1.9,1.8c0,1-0.9,1.4-1.8,1.4
	c-0.4,0-0.8-0.1-1.2-0.2l0.1-0.9c0.3,0.2,0.7,0.3,1.1,0.3c0.3,0,0.7-0.1,0.7-0.5c0-0.8-1.9-0.3-1.9-1.8c0-0.9,0.8-1.3,1.6-1.3
	c0.4,0,0.8,0.1,1.2,0.2L237,37.9z"/>
<path class="st3" d="M242.1,35.5h1.3l2.2,5.7h-1.3l-0.5-1.3h-2.3l-0.5,1.3h-1.2L242.1,35.5z M242.8,36.7L242.8,36.7l-0.8,2.4h1.7
	L242.8,36.7z"/>
<path class="st3" d="M250.2,41.2h-1v-0.6c-0.3,0.4-0.9,0.7-1.4,0.7c-1,0-1.4-0.7-1.4-1.6V37h1.1v2.2c0,0.5,0,1.2,0.7,1.2
	c0.8,0,1-0.9,1-1.4v-2h1.1L250.2,41.2z"/>
<path class="st3" d="M251.7,37.8h-0.8V37h0.8v-0.8l1.1-0.4V37h1v0.8h-1v2c0,0.4,0.1,0.7,0.5,0.7c0.2,0,0.3,0,0.5-0.1l0,0.9
	c-0.3,0.1-0.5,0.1-0.8,0.1c-0.7,0.1-1.3-0.4-1.4-1.1l0-0.3V37.8z"/>
<path class="st3" d="M254.5,35.1h1.1v2.5c0.3-0.4,0.8-0.7,1.3-0.7c1,0,1.4,0.7,1.4,1.6v2.7h-1.1V39c0-0.5,0-1.2-0.7-1.2
	c-0.8,0-1,0.9-1,1.4v2.1h-1.1L254.5,35.1z"/>
<path class="st3" d="M261.4,36.9c1.2-0.1,2.1,0.8,2.2,2l0,0.2c0,1.2-1,2.2-2.2,2.2s-2.2-1-2.2-2.2c-0.1-1.2,0.8-2.2,2-2.2
	L261.4,36.9z M261.4,40.5c0.8,0,1.1-0.8,1.1-1.5s-0.3-1.2-1.1-1.2s-1.1,0.6-1.1,1.2C260.3,39.7,260.5,40.5,261.4,40.5z"/>
<path class="st3" d="M264.5,37h1v1c0.1-0.6,0.6-1,1.2-1.1c0.1,0,0.2,0,0.3,0v1.1c-0.2-0.1-0.3-0.1-0.5-0.1c-0.9,0-0.9,1.1-0.9,1.7
	v1.5h-1.1L264.5,37z"/>
<path class="st3" d="M267.6,35.2h1.1v1h-1.1V35.2z M267.6,37h1.1v4.2h-1.1V37z"/>
<path class="st3" d="M270.3,37.8h-0.8V37h0.8v-0.8l1.1-0.4V37h1v0.8h-1v2c0,0.4,0.1,0.7,0.5,0.7c0.2,0,0.3,0,0.5-0.1l0,0.9
	c-0.3,0.1-0.5,0.1-0.8,0.1c-0.7,0.1-1.3-0.4-1.3-1.1l0-0.3V37.8z"/>
<path class="st3" d="M274.8,40.1L274.8,40.1l1-3.1h1.1l-1.6,4.2c-0.4,0.9-0.6,1.8-1.7,1.8c-0.3,0-0.5,0-0.8-0.1l0.1-0.8
	c0.2,0.1,0.4,0.1,0.6,0.1c0.4,0,0.7-0.3,0.7-0.7l0-0.1l-1.6-4.4h1.2L274.8,40.1z"/>
<path class="st4" d="M277,31.9V20.3h-28.7v11.6H277z M259.8,21.4l-2,9.3h-3.1l-1.9-6.4h0l-1.3,6.4H249l2-9.3h3.1l1.9,6.5h0l1.3-6.5
	L259.8,21.4z M268.7,21.4l-1.9,9.3h-2.5l0.8-4h-3l-0.8,4h-2.5l1.9-9.3h2.5l-0.7,3.6h3l0.7-3.6H268.7z M275.9,21.7l-0.6,1.9
	c-0.6-0.3-1.4-0.4-2.1-0.4c-1,0-1.8,0.1-1.8,0.9c0,1.3,3.6,0.8,3.6,3.7c0,2.6-2.4,3.2-4.6,3.2c-1,0-2-0.2-2.9-0.5l0.6-1.9
	c0.7,0.4,1.5,0.5,2.3,0.5c0.8,0,2-0.1,2-1.1c0-1.5-3.6-0.9-3.6-3.6c0-2.4,2.1-3.1,4.2-3.1C274,21.2,274.9,21.4,275.9,21.7
	L275.9,21.7z"/>
<rect x="184.8" y="55.4" class="st1" width="91.6" height="38.4"/>
<path class="st5" d="M275.9,55.9v37.4h-90.6V55.9H275.9 M276.9,54.9h-92.6v39.4h92.6V54.9z"/>
<rect x="192.3" y="61.3" class="st0" width="76.8" height="2.4"/>
<rect x="219.9" y="67.3" class="st0" width="49.2" height="2.4"/>
<rect x="207.2" y="73.4" class="st0" width="61.9" height="2.4"/>
<rect x="207.2" y="79.4" class="st0" width="61.9" height="2.4"/>
<rect x="207.2" y="85.4" class="st0" width="61.9" height="2.4"/>
<rect x="17.2" y="24.4" class="st0" width="49.7" height="2.4"/>
<rect x="17.2" y="30.4" class="st0" width="62.5" height="2.4"/>
<rect x="17.2" y="36.4" class="st0" width="62.5" height="2.4"/>
<rect x="17.2" y="42.5" class="st0" width="62.5" height="2.4"/>
<rect x="17.2" y="112.9" width="136" height="5.3"/>
<rect x="17.2" y="131.1" class="st0" width="259.8" height="2.4"/>
<rect x="17.2" y="137.2" class="st0" width="259.8" height="2.4"/>
<rect x="17.2" y="143.2" class="st0" width="259.8" height="2.4"/>
<rect x="17.2" y="353.2" class="st0" width="259.8" height="2.4"/>
<rect x="17.2" y="359.2" class="st0" width="259.8" height="2.3"/>
<rect x="17.2" y="365.2" class="st0" width="259.8" height="2.4"/>
<rect x="17.2" y="371.5" class="st0" width="259.8" height="2.4"/>
<rect x="17.2" y="377.6" class="st0" width="259.8" height="2.4"/>
<rect x="17.2" y="383.6" class="st0" width="259.8" height="2.3"/>
<rect x="17.2" y="390.2" class="st0" width="259.8" height="2.4"/>
<rect x="17.2" y="396.2" class="st0" width="259.8" height="2.3"/>
<rect x="17.2" y="402.2" class="st0" width="259.8" height="2.4"/>
<rect x="17.2" y="235.6" class="st0" width="259.8" height="2.4"/>
<rect x="17.2" y="242.1" class="st0" width="259.8" height="2.4"/>
<rect x="17.2" y="248.5" class="st0" width="259.8" height="2.4"/>
<rect x="17.2" y="254.5" class="st0" width="259.8" height="2.4"/>
<rect x="17.2" y="260.6" class="st0" width="259.8" height="2.4"/>
<rect x="17.2" y="327.8" width="136" height="5.3"/>
<text transform="matrix(1 0 0 1 81.4458 181.4074)"><tspan x="0" y="0" class="st6 st7 st8">Y</tspan><tspan x="6.9" y="0" class="st6 st7">our invitation code is:</tspan></text>
<text transform="matrix(1 0 0 1 103.0317 205.4074)" class="st9 st10">AB123CDF</text>
</svg>
